<svg fill="#B9D662" version="1.1" id="Capa_1" xmlns="http://www.w3.org/2000/svg" xmlns:xlink="http://www.w3.org/1999/xlink" viewBox="0 0 30.5 30.5" xml:space="preserve"><g id="SVGRepo_bgCarrier" stroke-width="0"></g><g id="SVGRepo_tracerCarrier" stroke-linecap="round" stroke-linejoin="round"></g><g id="SVGRepo_iconCarrier"> <g> <path d="M8.87,17.693l-0.713-0.699l6.349-6.453l2.352,2.44l4.072-3.9l-1.188-1.187h3.023v3.024l-1.132-1.13l-4.809,4.604 l-2.329-2.419L8.87,17.693z M10.809,22.338h3.646v-5.129h-3.646V22.338z M15.87,22.338h3.644V15.59H15.87V22.338z M20.932,22.338 h3.646V12.214h-3.646V22.338z M30.5,4.602v21.297H0V4.602H30.5z M3.586,15.041c0-0.656-0.533-1.187-1.188-1.187 c-0.655,0-1.188,0.531-1.188,1.187c0,0.655,0.531,1.188,1.188,1.188C3.055,16.229,3.586,15.696,3.586,15.041z M28.5,6.602H5.076 v17.297H28.5V6.602z"></path> </g> </g></svg>